<svg xmlns="http://www.w3.org/2000/svg" width="70" height="70" viewBox="0 0 70 70">
  <g id="Group_2732" data-name="Group 2732" transform="translate(-1646 -59)">
    <g id="Rectangle_44" data-name="Rectangle 44" transform="translate(1646 59)" fill="none" stroke="#453f32" stroke-width="2">
      <rect width="70" height="70" rx="26" stroke="none"/>
      <rect x="1" y="1" width="68" height="68" rx="25" fill="none"/>
    </g>
    <g id="Icon_feather-mail" data-name="Icon feather-mail" transform="translate(1662.416 79.337)">
      <path id="Path_38" data-name="Path 38" d="M6.632,6H35.684a3.642,3.642,0,0,1,3.632,3.632V31.421a3.642,3.642,0,0,1-3.632,3.632H6.632A3.642,3.642,0,0,1,3,31.421V9.632A3.642,3.642,0,0,1,6.632,6Z" transform="translate(-3 -6)" fill="none" stroke="#453f32" stroke-linecap="round" stroke-linejoin="round" stroke-width="4"/>
      <path id="Path_39" data-name="Path 39" d="M39.315,9,21.158,21.71,3,9" transform="translate(-3 -5.368)" fill="none" stroke="#453f32" stroke-linecap="round" stroke-linejoin="round" stroke-width="4"/>
    </g>
  </g>
</svg>
